<svg xmlns="http://www.w3.org/2000/svg" viewBox="0 0 500 500" xmlns:v="https://vecta.io/nano"><style><![CDATA[.B{fill:#ba68c8}.C{fill:#263238}.D{fill:#e0e0e0}.E{fill:#455a64}.F{fill:#fff}.G{fill:#37474f}.H{fill:#ffa8a7}.I{fill:#fafafa}.J{fill:#f28f8f}.K{fill:#ebebeb}]]></style><ellipse cx="250" cy="358.491" rx="222.503" ry="128.462" fill="#f5f5f5"/><g fill="#e6e6e6"><ellipse cx="95.578" cy="369.756" rx="24.631" ry="14.22"/><path d="M285.257 293.531L123.382 386.99c-2.685 1.55-2.685 5.425 0 6.975l95.135 54.927c4.868 2.81 10.865 2.81 15.733 0l161.875-93.459c2.685-1.55 2.685-5.425 0-6.975l-95.135-54.927a15.73 15.73 0 0 0-15.733 0z"/><path d="M236.654 294.441l-64.809 37.417c-5.703 3.293-5.703 11.525 0 14.817l32.635 18.842a14.2 14.2 0 0 0 14.198 0l64.809-37.418c5.703-3.293 5.703-11.525 0-14.817l-32.635-18.842a14.2 14.2 0 0 0-14.198.001z"/></g><use href="#B" class="B"/><use href="#B" opacity=".4"/><path d="M96.877 332.956s-7.881-31.104 3.779-49.242c0 0-13.669 16.005-3.779 49.242z" class="F"/><path d="M114.296 337.167l-18.623-.234v-.002l-.095.001-.095-.001v.002l-18.623.234s-.207 22.942 6.859 32.277h0c1.951 2.482 6.526 4.224 11.859 4.224 5.342 0 9.922-1.748 11.868-4.237 7.056-9.343 6.85-32.264 6.85-32.264z" class="G"/><ellipse cx="95.578" cy="337.167" rx="18.719" ry="10.049" class="E"/><path d="M95.578 334.501c6.44 0 11.894 2.066 13.815 4.926.478-.712.746-1.47.746-2.261 0-3.969-6.519-7.187-14.561-7.187s-14.561 3.218-14.561 7.187c0 .791.268 1.549.746 2.261 1.921-2.86 7.375-4.926 13.815-4.926z" class="C"/><path d="M95.578 334.501c-6.44 0-11.894 2.066-13.815 4.926 1.921 2.861 7.375 4.926 13.815 4.926s11.894-2.066 13.815-4.926c-1.921-2.86-7.375-4.926-13.815-4.926z" class="D"/><path d="M95.807 340.669s-7.214-.28-13.401-9.861l-3.782-6.027 10.051-.749-11.26-2.815-5.321-8.14 9.351-.694s-6.965-2.44-11.938-2.471c0 0-8.623-15.234-11.146-17.405 0 0 19.889.164 34.065 16.926s5.484 31.665 3.381 31.236z" class="B"/><path d="M95.807 340.669s4.512-27.175-24.281-43.522c0 0 29.883 14.354 24.281 43.522z" class="F"/><use href="#C" class="B"/><use href="#C" opacity=".2"/><path d="M95.807 340.669s-1.512-24.943 26.005-36.98c0-.001-28.313 10.137-26.005 36.98z" class="F"/><path d="M128.906 119.397v49.68l-43.024 24.84v-49.68l43.024-24.84z" class="I"/><path d="M124.248 122.086v44.301l-38.366 22.151v-44.301l38.366-22.151m2.329-4.034l-43.024 24.84v49.68l2.329 1.345 43.024-24.84v-49.68l-2.329-1.345h0z" class="D"/><path d="M126.577 123.431v44.301l-38.366 22.151v-44.301l38.366-22.151m2.329-4.034l-43.024 24.84v49.68l43.024-24.84v-49.68h0z" class="K"/><path d="M122.592 157.712l-32.548 18.792 9.616-25.019 6.658 7.908 6.808-9.695zm-11.291-15.607c0 1.893-1.329 4.196-2.969 5.142s-2.969.179-2.969-1.714 1.329-4.196 2.969-5.142 2.969-.18 2.969 1.714z" class="D"/><path d="M143.261 57.545v39.577l-34.275 19.789V77.334l34.275-19.789z" class="I"/><path d="M139.55 59.687V94.98l-30.564 17.646V77.334l30.564-17.647m1.855-3.213L107.13 76.262v39.577l1.855 1.071 34.275-19.789V57.545l-1.855-1.071h0z" class="D"/><path d="M141.405 60.758v35.293l-30.564 17.646V78.405l30.564-17.647m1.856-3.213l-34.275 19.789v39.577l34.275-19.789V57.545h0z" class="K"/><path d="M138.23 88.068l-25.929 14.97 7.661-19.931 5.304 6.301 5.424-7.724zm-8.994-12.433c0 1.508-1.059 3.342-2.365 4.097s-2.365.143-2.365-1.366 1.059-3.342 2.365-4.097 2.365-.143 2.365 1.366z" class="D"/><g class="C"><use href="#D"/><use href="#D" x="48.02" y="-28.551"/><path d="M194.797 266.476l-13.728 73.154c-.194 1.058-1.11 1.819-2.193 1.819a2.24 2.24 0 0 1-2.206-2.555l10.141-67.8 7.986-4.618zm48.563-27.288l-13.65 72.702c-.193 1.058-1.11 1.819-2.193 1.819a2.24 2.24 0 0 1-2.206-2.554l10.063-67.361 7.986-4.606z"/></g><use href="#E" class="B"/><use href="#E" opacity=".5"/><use href="#F" class="B"/><use href="#F" opacity=".6"/><path d="M298.213 322.277c-2.245-14.283-5.111-37.125-6.755-50.631a28.12 28.12 0 0 0-.447-2.632c-1.647-7.539-6.585-13.949-13.216-17.896l-33.657-20.037-22.851-12.018s-6.082 17.621.984 28.394c5.881 8.966 31.84 20.086 39.554 23.831s7.881 4.765 7.72 9.772-.166 11.386 9.317 31.371c2.725 5.742 4.624 10.038 5.949 13.329 3.304.287 8.209-.121 13.402-3.483z" class="B"/><path d="M298.213 322.277c-2.245-14.283-5.111-37.125-6.755-50.631-.162-1.331-.417-2.642-.76-3.923-1.873-6.994-6.625-12.868-12.846-16.572l-33.713-20.071-22.851-12.018s-6.082 17.621.984 28.394c5.881 8.966 31.84 20.086 39.554 23.831s7.881 4.765 7.72 9.772-.166 11.386 9.317 31.371c2.725 5.742 4.624 10.038 5.949 13.329 3.303.288 8.208-.12 13.401-3.482z" opacity=".7"/><path d="M287.802 337.406c-.015.597.122 1.179.407 1.704.628 1.154 2.063 3.318 5.063 6.025 4.534 4.089 19.565 20.093 24.85 10.158 0 0-15.528-14.873-17.586-20.99-.585-1.738-1.402-6.166-2.323-12.025-5.193 3.362-10.098 3.77-13.401 3.483 2.912 7.231 3.041 9.589 2.99 11.645z" class="H"/><path d="M303.961 336.433l-.431-1.29c-.335-1.003-1.409-1.554-2.418-1.243l-6.292 1.94c-.811.25-1.364 1-1.364 1.849v.629c0 .621-.503 1.124-1.124 1.124h0c-1.332 0-2.623-.464-3.651-1.311l-.879-.725v-2.199h0c-1.156.752-1.826 2.062-1.754 3.439l.096 4.038c-.101 1.314-1.337 6.818.135 8.445s4.767 1.82 8.847 1.38 8.545 3.575 12.326 5.061 19.439 4.693 19.4-5.318c-.01-2.549-2.532-3.589-5.008-4.494s-11.413-4.052-13.704-5.942c-1.049-.866-1.918-1.78-2.551-2.517a8.52 8.52 0 0 1-1.628-2.866z" class="E"/><path d="M307.452 357.569c-3.781-1.486-8.246-5.501-12.326-5.061s-7.375.247-8.847-1.38c-.443-.49-.639-1.335-.695-2.308-.076 1.54.044 3.02.695 3.74 1.473 1.627 4.767 1.82 8.847 1.38s8.545 3.575 12.326 5.061 19.44 4.693 19.4-5.318c-.001-.155-.038-.288-.057-.433-.99 8.786-15.694 5.753-19.343 4.319z" class="C"/><use href="#G" class="B"/><use href="#G" opacity=".7"/><path d="M257.214 353.464c-.015.597-.414 2.371.418 2.989 1.055.783 2.063 3.318 5.063 6.025 4.534 4.089 9.322-4.715 7.264-10.832-.585-1.738-1.402-6.166-2.323-12.025-5.193 3.362-10.098 3.77-13.401 3.483 2.912 7.231 3.03 8.304 2.979 10.36zm-26.697-191.943h0c6.381-.996 12.588 2.729 14.613 8.861 1.216 3.684 2.307 8.18 2.73 13.213l1.489 20.777 13.914 6.311s-7.514.361-7.005 10.971l-17.33-4.369-8.411-55.764z" class="H"/><use href="#H" class="B"/><use href="#H" opacity=".2"/><path d="M249.349 204.372s-2.654.777-4.11 2.524c0 0 1.678-3.19 4.025-4.175l.085 1.651z" class="J"/><path d="M197.099 173.666l15.563-7.537 12.822-4.425s10.272-3.277 12.901 10.413c2.161 11.253 2.444 54.008 2.444 54.008l-.229 4.679s-5.932 16.615-27.123 17.99-25.315-7.56-25.315-7.56-2.146-56.569 8.937-67.568z" class="B"/><path d="M246.129 127.96s4.811 12.328-1.833 17.756-4.341-16.382-4.341-16.382l6.174-1.374z" class="C"/><path d="M234.412 445.411c-1.508.871-3.953.871-5.461 0s-1.508-2.282 0-3.153 3.953-.871 5.461 0 1.508 2.283 0 3.153z" class="E"/><path d="M227.827 350.79h7.724v92.958h-7.724z" class="G"/><ellipse cx="143.867" cy="392.27" rx="3.862" ry="2.23" class="E"/><path d="M140.013 299.226h7.724v92.958h-7.724z" class="C"/><path d="M378.364 362.009c-1.508.871-3.953.871-5.461 0s-1.508-2.282 0-3.153 3.953-.871 5.461 0 1.508 2.282 0 3.153z" class="E"/><path d="M371.779 267.388h7.724v92.958h-7.724z" class="G"/><g class="E"><path d="M283.962 291.664c-1.353.781-3.546.781-4.899 0s-1.353-2.047 0-2.828 3.546-.781 4.899 0 1.352 2.047 0 2.828z"/><path d="M278.055 212.596h6.928v77.576h-6.928z"/></g><path d="M140.005 283.827v18.494l91.69 52.937v-18.495z" class="C"/><path d="M379.503 251.427l-147.808 85.336v18.495l147.808-85.337z" class="G"/><path d="M287.813 198.49l-147.808 85.337 91.69 52.936 147.808-85.336z" class="E"/><path d="M213.659 256.076l33.62 19.41 55.895-32.324-33.615-19.806z" class="K"/><path d="M243.661 250.553l12.613-7.282-7.906-4.564-12.612 7.282zm5.047 20.085l-16.991-10 33.205-20.097z" class="D"/><g class="H"><path d="M258.218 208.281l13.45 6.308c5.39 1.264 11.877 3.67 11.877 3.67s9.357 3.825 9.784 6.334-7.022 8.554-13.567 5.613c-1.32-.593-3.702-1.791-5.458-1.977s-6.973-1.008-10.749-4.609l-15.697-4.083c-.001-.001-.783-9.695 10.36-11.256z"/><path d="M266.926 227.044l6.968 7.093c.969 1.216 3.258-1.911-.755-6.571 0 0-5.343-1.847-9.69-5.275 0-.001 1.919 3.086 3.477 4.753zm-54.264-80.235h15.965v19.32h-15.965z"/></g><path d="M228.626 166.129c-5.642-2.178-11.538-6.549-14.666-13.948v-5.372h14.666v19.32z" class="J"/><path d="M233.998 121.303s14.521 1.747 11.191 26.553c-1.54 11.472-4.605 17.272-13.45 16.29-10.023-1.112-23.868-8.896-21.722-28.552s23.981-14.291 23.981-14.291z" class="H"/><path d="M234.812 143.423l-.526 8.565 5.111-1.232z" class="J"/><g class="C"><use href="#I"/><use href="#I" x="11.554" y="-0.512"/><path d="M242.857 138.74l-3.288-2.236s1.394-1.281 2.647-.383.641 2.619.641 2.619zm-14.435-.391l-3.553 1.785s-.441-1.84.953-2.499 2.6.714 2.6.714z"/></g><path d="M234.537 155.469s-3.33.099-5.526-1.849c0 0-.565 2.935 1.879 3.653s3.647-1.804 3.647-1.804z" class="J"/><path d="M212.488 143.223s2.235 4.643 3.61 4.482 0-17.801 2.864-17.915 16.357 6.591 28.293-2.062c4.582-3.322 5.498-11.798 2.749-10.996s-6.46 3.207-11.477 2.864-22.543-8.476-26.896 2.978c0 0-9.706-.791-6.06 18.471.905 4.782 3.769 16.649 7.091 17.817l-.174-15.639z" class="C"/><g class="H"><path d="M213.275 147.459c.04-1.451-.193-2.911-.787-4.236-.666-1.485-1.843-2.985-3.885-3.041-4.484-.123-5.089 4.194-5.029 5.731.159 4.036 3.426 8.396 9.508 8.563l.193-7.017zm1.388 86.45l11.437 9.061s3.618.349 5.804 1.005l9.449 3.096c1.519.329-.445 2.945-4.418 1.994 0 0 8.338 5.714 8.226 8.257s-8.67 6.879-14.446 2.621c-1.165-.859-3.24-2.532-4.918-3.085s-6.603-2.458-9.534-6.775l-10.001-5.214c-.001 0-2.82-11.787 8.401-10.96z"/><path d="M202.177 171.207s6.677 5.175 2.575 21.242-6.294 29.921-6.294 29.921l16.205 11.538s-6.851 2.435-8.402 10.96c0 0-25.543-10.042-26.058-16.486s5.327-34.354 6.216-39.484 5.428-15.262 15.758-17.691z"/></g><path d="M198.458 222.371s-3.286-.701-6.11.058c0 0 2.504-1.547 6.248-1.55l-.138 1.492z" class="J"/><path d="M310.967 206.126l-5.845 38.257c-.004.027-.02.05-.043.063l-58.056 33.673c-.064.037-.144-.016-.132-.09l5.669-37.098c.245-1.601 1.182-3.013 2.563-3.86l53.26-32.661c1.24-.762 2.804.276 2.584 1.716z" class="I"/><path d="M247.023 278.118l-31.013-17.963c-1.455-.843-2.352-2.398-2.352-4.08h0l33.621 19.41-.256 2.633zm30.344-35.124c0 2.732 1.918 3.84 4.285 2.474s4.285-4.689 4.285-7.422-1.918-3.84-4.285-2.474-4.285 4.69-4.285 7.422z" class="D"/><g class="C"><path d="M213.169 128.208s-2.634-3.895-1.031-5.155 2.864 2.749 1.031 5.155z"/><path d="M213.614 129.021s-4.666-.581-4.559-2.617 3.954-.346 4.559 2.617z"/></g><path d="M212.662 166.129s3.425 9.024 11.328 7.878 4.636-7.878 4.636-7.878h-15.964z" class="H"/><use href="#J" class="B"/><use href="#J" opacity=".2"/><path d="M257.633 353.976s1.159 1.826 3.041 2.123c1.125.178-1.157-2.752 1.567-3.926s8.952-2.795 9.506-.451l.69 2.92c.653 2.761 1.971 5.317 3.841 7.45s4.289 4.672 6.165 5.884c3.556 2.297 9.405 7.845 1.897 12.569s-16.736.738-18.542-4.638-3.718-6.929-4.681-7.821-3.212-2.294-4.058-5.92c-.549-2.353-.863-5.37-1.015-7.196a2.68 2.68 0 0 1 1.236-2.488h0l.353 1.494z" class="E"/><path d="M284.342 380.546c-7.507 4.725-16.736.738-18.542-4.637s-3.718-6.929-4.681-7.821c-.863-.799-2.75-2.022-3.744-4.872l.039.445c.287 4.653 3.138 5.743 4.101 6.635s2.54 2.366 4.346 7.741 11.327 8.726 18.834 4.002c3.644-2.293 4.137-4.779 3.278-6.994.138 1.804-.787 3.712-3.631 5.501z" class="C"/><use href="#K" class="B"/><use href="#K" opacity=".7"/><g class="F"><path d="M246.602 308.657l-22.267 12.856-28.103-16.225 22.312-12.882a1.91 1.91 0 0 1 1.91 0l26.147 15.096a.67.67 0 0 1 .001 1.155z"/><path d="M224.335 321.512v-2.507l22.6-13.048v2.136z"/></g><path d="M224.335 321.512v-2.507l-28.102-16.225v2.507z" class="D"/><use href="#L" class="B"/><use href="#L" opacity=".5"/><path d="M221.215 321.174a.53.53 0 0 1-.449-.025c-.179-.096-.286-.274-.286-.478v-2.268c0-1.041.557-2.018 1.452-2.548l.085-.051c.121-.071.229-.025.269-.002s.135.092.135.233a.47.47 0 0 0 .94 0c0-.439-.228-.832-.61-1.049s-.836-.214-1.214.01l-.085.05c-1.181.699-1.914 1.985-1.914 3.357v2.268a1.48 1.48 0 0 0 1.482 1.482c.288 0 .575-.084.824-.25.095-.063.153-.157.183-.259l-.812-.47zm-4.47-2.58a.53.53 0 0 1-.449-.025c-.179-.096-.286-.274-.286-.477v-2.268c0-1.041.557-2.017 1.452-2.548l.085-.05c.121-.071.229-.025.269-.002s.135.092.135.233a.47.47 0 0 0 .94 0c0-.439-.228-.832-.61-1.049s-.835-.214-1.214.01l-.085.051c-1.181.699-1.914 1.985-1.914 3.357v2.268a1.48 1.48 0 0 0 1.482 1.482c.288 0 .575-.084.824-.25.095-.063.153-.157.183-.259l-.812-.473zm-4.47-2.58a.53.53 0 0 1-.449-.025c-.179-.096-.286-.274-.286-.477v-2.268c0-1.041.557-2.017 1.452-2.548l.085-.051c.121-.071.229-.025.269-.002s.135.092.135.233a.47.47 0 0 0 .94 0 1.19 1.19 0 0 0-1.823-1.039l-.085.051c-1.181.699-1.914 1.985-1.914 3.357v2.268a1.48 1.48 0 0 0 1.482 1.482c.288 0 .575-.084.824-.25.095-.063.153-.157.183-.259l-.813-.472zm-4.47-2.58a.53.53 0 0 1-.449-.025c-.179-.096-.286-.274-.286-.477v-2.268c0-1.041.557-2.018 1.453-2.548l.085-.051c.121-.071.229-.025.269-.002s.135.092.135.233a.47.47 0 0 0 .94 0 1.19 1.19 0 0 0-.61-1.049c-.382-.217-.836-.214-1.214.01l-.085.051a3.92 3.92 0 0 0-1.914 3.357v2.268a1.48 1.48 0 0 0 1.482 1.482c.288 0 .575-.084.824-.25a.46.46 0 0 0 .183-.259l-.813-.472zm-4.47-2.58a.53.53 0 0 1-.449-.026c-.179-.096-.286-.274-.286-.478v-2.268c0-1.041.557-2.018 1.453-2.548l.085-.05c.121-.071.229-.026.269-.002s.135.092.135.233a.47.47 0 0 0 .94 0c0-.44-.228-.832-.61-1.05s-.836-.214-1.214.01l-.086.051a3.92 3.92 0 0 0-1.914 3.357v2.268a1.48 1.48 0 0 0 1.482 1.482c.288 0 .575-.084.824-.25.095-.064.153-.158.183-.259l-.812-.47zm-4.47-2.58a.53.53 0 0 1-.449-.026c-.179-.096-.286-.274-.286-.477v-2.268c0-1.041.557-2.018 1.452-2.548l.085-.051c.121-.071.229-.026.269-.002s.135.092.135.233a.47.47 0 0 0 .94 0c0-.44-.228-.832-.61-1.05s-.836-.214-1.214.01l-.085.05c-1.181.699-1.914 1.985-1.914 3.357v2.268a1.48 1.48 0 0 0 1.482 1.482c.288 0 .575-.084.824-.25.095-.064.153-.158.183-.259l-.812-.469z" class="F"/><path d="M251.345 298.95l-25.864 14.933-33.658-19.432 25.864-14.933z" fill="#e6e6e6"/><path d="M252.831 298.462l-27.024 12.714-31.913-22.183 27.024-12.714z" class="I"/><path d="M192.501 258.75h-10.932-11.016l1.969 23.233h.008c.116 1.237.982 2.456 2.619 3.401 3.523 2.034 9.235 2.034 12.758 0 1.637-.945 2.503-2.163 2.619-3.401h.006l1.969-23.233z" class="B"/><path d="M193.905 257.481v-1.841h-.433c-.544-1.171-1.6-2.279-3.191-3.198-4.834-2.791-12.671-2.791-17.505 0-1.591.919-2.648 2.027-3.191 3.198h-.434v1.855c0 1.829 1.208 3.658 3.625 5.053 4.834 2.791 12.671 2.791 17.505 0 2.423-1.398 3.63-3.233 3.624-5.067z" class="D"/><path d="M190.281 260.802c-4.834 2.791-12.671 2.791-17.505 0s-4.834-7.315 0-10.106 12.671-2.791 17.505 0 4.834 7.315 0 10.106z" class="K"/><path d="M191.445 254.983v-1.475h-.347c-.436-.938-1.282-1.826-2.557-2.562-3.873-2.236-10.153-2.236-14.026 0-1.275.736-2.121 1.624-2.557 2.562h-.348v1.487c0 1.465.968 2.931 2.905 4.049 3.873 2.236 10.152 2.236 14.025 0 1.943-1.122 2.91-2.592 2.905-4.061z" class="D"/><path d="M188.541 257.643c-3.873 2.236-10.152 2.236-14.025 0s-3.873-5.862 0-8.098 10.152-2.236 14.026 0 3.872 5.862-.001 8.098z" fill="#f5f5f5"/><path d="M186.923 256.463c-2.974 1.72-7.812 1.72-10.797 0-2.885-1.664-2.985-4.328-.3-6.048.1-.067.2-.133.3-.189.621-.355 1.332-.644 2.086-.854 2.841-.788 6.358-.51 8.711.854 2.985 1.721 2.985 4.517 0 6.237z" fill="#f0f0f0"/><g class="D"><path d="M176.129 251.116c2.982-1.722 7.816-1.722 10.798 0 1.296.748 2.027 1.698 2.197 2.674.221-1.271-.51-2.586-2.197-3.56-2.982-1.722-7.817-1.722-10.798 0-1.686.973-2.417 2.289-2.197 3.56.17-.976.902-1.926 2.197-2.674z"/><path d="M180.21 251.414l-2.219 1.409-2.164-1.553v-.854l.3-.189c.621-.355 1.332-.644 2.086-.854v.643l1.997 1.398z"/></g><use href="#M" class="B"/><use href="#M" opacity=".3"/><g class="B"><use href="#N"/><use href="#N"/></g><path d="M436.625 117.867L312.144 45.998c-2.758-1.592-4.994.098-4.994 3.775v5.046l134.468 77.635v-5.046c0-3.677-2.235-7.949-4.993-9.541z" class="E"/><path d="M310.162 46.398h0c.443 0 .955.161 1.482.465l124.481 71.869c2.436 1.406 4.493 5.379 4.493 8.675v103.216c0 2.05-.789 3.374-2.011 3.374-.449 0-.948-.157-1.482-.465l-124.481-71.869c-2.436-1.406-4.494-5.379-4.494-8.675V49.773c0-2.05.79-3.375 2.012-3.375m0-1c-1.772 0-3.011 1.636-3.011 4.374v103.216c0 3.677 2.236 7.949 4.994 9.541l124.481 71.869c.704.407 1.375.599 1.982.599 1.772 0 3.011-1.636 3.011-4.374V127.408c0-3.677-2.236-7.949-4.993-9.541L312.144 45.998c-.704-.407-1.375-.6-1.982-.6h0z" class="B"/><g class="F"><path d="M364.856 100.043a1.05 1.05 0 0 1-.529-.142l-47.384-27.357a1.06 1.06 0 0 1-.387-1.447 1.06 1.06 0 0 1 1.447-.388l47.384 27.357a1.06 1.06 0 0 1-.531 1.977zm66.671 38.492a1.06 1.06 0 0 1-.529-.142l-35.1-20.265a1.06 1.06 0 0 1-.387-1.447 1.06 1.06 0 0 1 1.447-.387l35.1 20.265a1.06 1.06 0 0 1-.531 1.976zm-42.709-24.658a1.06 1.06 0 0 1-.529-.142l-14.257-8.231a1.06 1.06 0 0 1-.388-1.447 1.06 1.06 0 0 1 1.447-.388l14.257 8.231a1.06 1.06 0 0 1-.53 1.977zm-23.962 52.533a1.06 1.06 0 0 1-.529-.142l-47.384-27.357a1.06 1.06 0 0 1-.387-1.447 1.06 1.06 0 0 1 1.447-.388l47.384 27.357a1.06 1.06 0 0 1-.531 1.977zm66.671 38.493a1.05 1.05 0 0 1-.529-.142l-35.1-20.266a1.06 1.06 0 0 1-.387-1.447c.291-.506.94-.682 1.447-.387l35.1 20.265a1.06 1.06 0 0 1 .387 1.447c-.196.34-.551.53-.918.53z"/><use href="#O"/><use href="#P"/><path d="M416.588 211.882a1.05 1.05 0 0 1-.529-.142l-20.161-11.639a1.06 1.06 0 0 1-.388-1.447 1.06 1.06 0 0 1 1.447-.387l20.161 11.639a1.06 1.06 0 0 1-.53 1.976z"/><use href="#O" y="15.605"/><path d="M341.226 94.646a1.05 1.05 0 0 1-.529-.142L316.943 80.79a1.06 1.06 0 0 1-.387-1.447 1.06 1.06 0 0 1 1.447-.387l23.753 13.714a1.06 1.06 0 0 1-.53 1.976z"/><use href="#Q"/><use href="#R"/><use href="#P" y="-65.478"/><path d="M405.777 140.162a1.05 1.05 0 0 1-.529-.142l-9.35-5.398a1.06 1.06 0 0 1-.387-1.447 1.06 1.06 0 0 1 1.447-.388l9.35 5.398a1.06 1.06 0 0 1 .387 1.447c-.196.34-.551.53-.918.53zm-59.876-26.324a1.05 1.05 0 0 1-.529-.142l-9.35-5.398a1.06 1.06 0 0 1-.388-1.447 1.06 1.06 0 0 1 1.447-.388l9.35 5.398a1.06 1.06 0 0 1-.53 1.977z"/><use href="#O" y="-49.874"/><path d="M332.66 106.193a1.05 1.05 0 0 1-.529-.142l-15.188-8.768a1.06 1.06 0 0 1-.388-1.447 1.06 1.06 0 0 1 1.447-.388l15.188 8.768a1.06 1.06 0 0 1-.53 1.977z"/><use href="#R" y="16.494"/><use href="#P" y="-48.384"/><path d="M431.527 172.123a1.05 1.05 0 0 1-.529-.142l-35.1-20.265a1.06 1.06 0 0 1-.387-1.447 1.06 1.06 0 0 1 1.447-.387l35.1 20.265a1.06 1.06 0 0 1-.531 1.976z"/><use href="#O" y="-32.779"/><path d="M341.226 128.234a1.05 1.05 0 0 1-.529-.142l-23.753-13.714a1.06 1.06 0 0 1-.388-1.447 1.06 1.06 0 0 1 1.447-.388l23.753 13.714a1.06 1.06 0 0 1-.53 1.977z"/><use href="#Q" y="33.588"/><path d="M365.187 142.068a1.05 1.05 0 0 1-.529-.142l-14.256-8.231a1.06 1.06 0 0 1-.388-1.447 1.06 1.06 0 0 1 1.447-.388l14.256 8.231a1.06 1.06 0 0 1 .387 1.447c-.195.34-.551.53-.917.53z"/><use href="#P" y="-31.89"/><path d="M405.777 173.749a1.05 1.05 0 0 1-.529-.142l-9.35-5.398a1.06 1.06 0 0 1-.387-1.447 1.06 1.06 0 0 1 1.447-.388l9.35 5.398a1.06 1.06 0 0 1 .387 1.447c-.196.341-.551.53-.918.53zm-59.876-26.323a1.05 1.05 0 0 1-.529-.142l-9.35-5.398a1.06 1.06 0 0 1-.387-1.447 1.06 1.06 0 0 1 1.447-.387l9.35 5.398a1.06 1.06 0 0 1-.531 1.976z"/><use href="#O" y="-16.286"/><path d="M332.66 139.781a1.06 1.06 0 0 1-.529-.142l-15.188-8.768a1.06 1.06 0 0 1-.388-1.447 1.06 1.06 0 0 1 1.447-.388l15.188 8.768a1.06 1.06 0 0 1-.53 1.977zm32.527 18.78a1.05 1.05 0 0 1-.529-.142l-14.256-8.231a1.06 1.06 0 0 1-.388-1.447 1.06 1.06 0 0 1 1.447-.388l14.256 8.232a1.06 1.06 0 0 1 .387 1.447c-.195.339-.551.529-.917.529zm-19.286 4.672a1.05 1.05 0 0 1-.529-.142l-9.35-5.398a1.06 1.06 0 0 1-.388-1.447 1.06 1.06 0 0 1 1.447-.388l9.35 5.398a1.06 1.06 0 0 1 .388 1.447c-.196.341-.552.53-.918.53zm-13.241-7.644a1.05 1.05 0 0 1-.529-.142l-15.188-8.768a1.06 1.06 0 0 1-.388-1.447 1.06 1.06 0 0 1 1.447-.387l15.188 8.768a1.06 1.06 0 0 1-.53 1.976zm32.527 18.78a1.06 1.06 0 0 1-.529-.142l-14.256-8.231a1.06 1.06 0 0 1-.388-1.447 1.06 1.06 0 0 1 1.447-.388l14.256 8.231a1.06 1.06 0 0 1 .387 1.447c-.195.34-.551.53-.917.53z"/></g><path d="M326.853 82.828v38.344c0 .615-.226 1.029-.572 1.164l-.01.003-.002.002-1.468.804.008-1.307-.208-39.422 1.922-.971c.206.441.33.929.33 1.383z" class="C"/><path d="M326.524 81.447l-1.922.971-46.492-27.254-1.108-.645 1.531-.862.044-.026v-.001c.244-.147.564-.137.916.066l45.977 26.491c.422.244.8.714 1.054 1.26z" class="G"/><path d="M325.186 83.664v38.09c0 .53-.169.91-.438 1.088l-.088.048c-.234.111-.528.087-.848-.098L278.111 96.46c-.759-.438-1.376-1.615-1.376-2.626V55.745c0-.512.157-.883.411-1.069.043-.032.09-.059.14-.079.23-.098.515-.069.825.109l45.701 26.333c.404.233.767.676 1.018 1.191.221.451.356.96.356 1.434z" class="E"/><text transform="matrix(-.866 -.5 0 1 316.9501 108.3479)" font-family="Montserrat-Bold" font-size="25.8" class="I">&lt;/&gt;</text><path d="M277.382 54.64c.128 0 .27.044.422.132l45.977 26.491c.346.199.682.596.922 1.09.214.436.333.909.333 1.33v38.32c0 .424-.119.745-.308.871l-.076.042a.46.46 0 0 1-.197.042c-.127 0-.268-.044-.419-.131l-45.977-26.491c-.681-.393-1.257-1.502-1.257-2.421v-38.32c0-.409.113-.726.31-.871a.35.35 0 0 1 .089-.049c.055-.023.116-.035.181-.035m0-.255a.71.71 0 0 0-.281.056c-.05.019-.097.047-.141.079-.255.187-.413.56-.413 1.076v38.318c0 1.018.62 2.201 1.384 2.642l45.977 26.491c.194.112.379.166.547.166a.71.71 0 0 0 .306-.067l.089-.049c.271-.179.441-.562.441-1.095v-38.32c0-.477-.136-.988-.359-1.442-.252-.518-.617-.964-1.024-1.198L277.931 54.55c-.196-.112-.381-.165-.549-.165h0z" class="G"/><g class="F"><use href="#S"/><use href="#S" x="6.358" y="3.926"/><use href="#S" x="12.717" y="7.852"/></g><defs ><path id="B" d="M96.877 332.956s-15.221-14.863-6.558-39.761c4.855-13.955 20.94-24.201 30.102-25.165 0 0-4.97 5.727-7.158 12.071l-11.537 7.67 10.605-3.321-2.258 9.078s-9.864 5.965-11.325 7.266l10.633-2.779c-.002 0-.817 25.701-12.504 34.941z"/><path id="C" d="M95.807 340.669s6.535.426 13.019-7.635l3.98-5.081-8.998-1.622 10.424-1.479 5.567-6.843-8.372-1.507s6.514-1.545 11.003-1.106c0 0 9.215-12.932 11.695-14.653 0 0-17.96-1.724-32.328 12.063s-7.928 28.052-5.99 27.863z"/><path id="D" d="M216.153 286.328l13.912 84.889a2.65 2.65 0 0 0 2.613 2.22h0a2.65 2.65 0 0 0 2.632-2.941l-9.76-87.576-9.397 3.408z"/><path id="E" d="M239.4 233.654c-6.406-2.856-10.796-8.895-11.49-15.875-2.214-22.274-10.058-68.176-36.643-52.896-32.813 18.86-21.065 73.627-16.294 91.189 1.076 3.962 3.138 7.575 6.03 10.489 5.928 5.972 18.201 16.255 39.073 25.01 2.56 1.074 5.413 1.243 8.083.482 10.37-2.954 37.462-12.026 50.969-29.298a4.72 4.72 0 0 0-.779-6.603c-5.472-4.35-17.834-13.085-38.949-22.498z"/><path id="F" d="M280.105 259.61c.055 1.095-.249 2.214-.977 3.145l-2.282 2.691h0l-1.333 1.416-.027.028-1.375 1.359-.041.039-1.426 1.317-.036.032-1.484 1.287-.019.016c-7.66 6.433-16.956 11.327-25.268 14.86l-.032.014-1.539.643-.16.066-1.417.572-.247.098-1.321.516-.303.116-1.232.465-.357.132-1.136.415-.412.148-1.05.372-.435.151-.972.334-.465.156-.883.294-.501.163-.788.255-.534.169-.685.215-.576.177-.576.176-.704.21-.358.107-.996.288c-2.67.761-5.523.592-8.083-.482-20.872-8.755-33.145-19.038-39.073-25.01-2.892-2.914-4.954-6.527-6.03-10.489-4.771-17.562-16.519-72.329 16.294-91.189.582-.334 1.151-.629 1.715-.906l.368-.179a24.35 24.35 0 0 1 1.641-.709c.053-.02.105-.037.157-.056a20.61 20.61 0 0 1 1.524-.508l.231-.068c.539-.15 1.069-.272 1.589-.367l.133-.022c1.087-.188 2.135-.26 3.145-.221l.059.003a13.39 13.39 0 0 1 2.982.462c-5.242-2.316-11.641-2.211-17.986 1.436-32.813 18.86-21.064 73.627-16.294 91.189l.807 3.017a28.54 28.54 0 0 0 10.241 15.305l8.514 6.508v-.004c6.894 5.302 16.674 11.486 29.948 17.057 2.568 1.078 5.429 1.26 8.108.497 10.364-2.952 37.466-12.024 50.977-29.3.602-.77.912-1.667.971-2.572h.021v-5.849l-.012.015z"/><path id="G" d="M267.636 339.62c-2.245-14.283-5.111-37.124-6.755-50.631-.865-7.1-4.37-13.607-9.819-18.24l-40.394-34.343-21.585-.372s-4.453 17.993 2.613 28.766c5.881 8.966 31.84 20.087 39.554 23.831s7.882 4.765 7.72 9.772-.166 11.386 9.317 31.371c2.725 5.742 4.624 10.038 5.949 13.329 3.302.287 8.207-.121 13.4-3.483z"/><path id="H" d="M249.863 196c-2.05-15.006-2.864-22.849-4.624-26.575-2.758-5.839-8.341-8.9-14.722-7.905l5.239 41.201.675-.066c4.641-.454 9.014-2.387 12.474-5.514l.958-1.141z"/><path id="I" d="M227.209 142.649a1.75 1.75 0 0 0 1.638 1.852 1.75 1.75 0 0 0 1.852-1.638 1.75 1.75 0 0 0-1.638-1.852 1.75 1.75 0 0 0-1.852 1.638z"/><path id="J" d="M202.177 171.207s5.203 2.49 4.402 12.954-4.925 31.541-4.925 31.541-18.618 7.533-20.389-3.093c-.458-2.749 4.238-28.178 8.247-33.562s8.539-7.102 12.665-7.84z"/><path id="K" d="M248.259 309.164l-23.923 13.812-30.194-17.432 23.972-13.84a2.05 2.05 0 0 1 2.052 0l28.093 16.22c.477.275.477.964 0 1.24z"/><path id="L" d="M248.259 305.193l-23.923 13.812-30.194-17.432 23.972-13.84c.635-.366 1.417-.366 2.052 0l28.093 16.22c.477.275.477.964 0 1.24z"/><path id="M" d="M440.865 114.948L316.384 43.079c-1.428-.824-2.713-.763-3.623-.007l-4.309 2.98 2.939 3.633V150.07c0 3.677 2.236 7.949 4.993 9.541l123.243 71.154.229 3.915 4.54-3.112c.904-.683 1.462-2.025 1.462-3.863V124.49c0-3.678-2.235-7.949-4.993-9.542z"/><path id="N" d="M436.625 234.399L312.144 162.53c-2.758-1.592-4.994-5.864-4.994-9.541V49.773c0-3.677 2.236-5.367 4.994-3.775l124.481 71.869c2.758 1.592 4.994 5.864 4.994 9.541v103.216c-.001 3.677-2.236 5.367-4.994 3.775z"/><path id="O" d="M388.818 180.244a1.05 1.05 0 0 1-.529-.142l-14.257-8.231a1.06 1.06 0 0 1-.388-1.447 1.06 1.06 0 0 1 1.447-.388l14.257 8.231a1.06 1.06 0 0 1-.53 1.977z"/><path id="P" d="M364.856 182.014a1.05 1.05 0 0 1-.529-.142l-47.384-27.357a1.06 1.06 0 0 1-.388-1.447 1.06 1.06 0 0 1 1.447-.388l47.384 27.357a1.06 1.06 0 0 1 .388 1.447c-.195.34-.551.53-.918.53z"/><path id="Q" d="M409.661 134.157a1.05 1.05 0 0 1-.529-.142l-35.1-20.265a1.06 1.06 0 0 1-.388-1.447 1.06 1.06 0 0 1 1.447-.388l35.1 20.265a1.06 1.06 0 0 1-.53 1.977z"/><path id="R" d="M365.187 108.48a1.05 1.05 0 0 1-.529-.142l-14.256-8.231a1.06 1.06 0 0 1-.388-1.447 1.06 1.06 0 0 1 1.447-.387l14.256 8.231a1.06 1.06 0 0 1 .387 1.447c-.195.339-.551.529-.917.529z"/><path id="S" d="M319.457 55.627c0 1.091-.766 1.533-1.711.988s-1.711-1.872-1.711-2.963.766-1.533 1.711-.988 1.711 1.872 1.711 2.963z"/></defs></svg>